<svg width="1440" height="1165" fill="none" xmlns="http://www.w3.org/2000/svg"><rect width="1441" height="1165" rx="12" fill="#D8D9FC"/><mask id="a" style="mask-type:alpha" maskUnits="userSpaceOnUse" x="0" y="0" width="1441" height="1165"><rect width="1441" height="1165" rx="12" fill="#D8D9FC"/></mask><g mask="url(#a)"><path d="M-223.03 219.544c-120.941 287.032 13.703 617.758 300.734 738.699 287.032 120.937 617.759-13.702 738.7-300.734C937.345 370.477 802.701 39.75 515.67-81.191c-287.032-120.94-617.759 13.703-738.7 300.735z" fill="url(#paint0_linear_2172)"/><path d="M1752.18 628.387c-51.04-307.26-341.49-514.968-648.75-463.929-307.265 51.04-514.973 341.499-463.934 648.76 51.04 307.262 341.5 514.972 648.764 463.932 307.26-51.04 514.96-341.503 463.92-648.763z" fill="url(#paint1_linear_2172)"/></g><defs><linearGradient id="paint0_linear_2172" x1="-269.741" y1="642.055" x2="716.966" y2="893.508" gradientUnits="userSpaceOnUse"><stop stop-color="#F0F1FD"/><stop offset=".622" stop-color="#F0F1FD" stop-opacity=".467"/><stop offset="1" stop-color="#F0F1FD" stop-opacity="0"/></linearGradient><linearGradient id="paint1_linear_2172" x1="1566.03" y1="246.228" x2="597.531" y2="560.586" gradientUnits="userSpaceOnUse"><stop stop-color="#F0F1FD"/><stop offset=".622" stop-color="#F0F1FD" stop-opacity=".467"/><stop offset="1" stop-color="#F0F1FD" stop-opacity="0"/></linearGradient></defs></svg>